<svg width="24" height="24" viewBox="0 0 24 24" fill="none" xmlns="http://www.w3.org/2000/svg">
<path d="M15.5621 4.44717C14.4311 2.18515 13.8656 1.05414 13.126 0.681032C12.4179 0.323799 11.5822 0.323799 10.874 0.68103C10.1344 1.05413 9.56892 2.18515 8.43791 4.44718C8.13099 5.061 7.97754 5.36791 7.76834 5.60789C7.49876 5.91713 7.15723 6.15528 6.77386 6.30133C6.47635 6.41467 6.14153 6.45187 5.47188 6.52628C3.13977 6.7854 1.97372 6.91496 1.39896 7.38946C0.657283 8.00176 0.332614 8.98524 0.563974 9.91876C0.743268 10.6422 1.61602 11.4526 3.36154 13.0734C3.90529 13.5784 4.17717 13.8308 4.35485 14.1182C4.62987 14.563 4.75847 15.0829 4.72253 15.6047C4.69931 15.9418 4.57828 16.2867 4.33623 16.9765C3.54952 19.2187 3.15617 20.3397 3.30443 21.0286C3.53549 22.1021 4.4401 22.8992 5.53423 22.9933C6.23626 23.0537 7.29889 22.5224 9.42416 21.4598L10.2112 21.0663C10.8671 20.7383 11.195 20.5743 11.539 20.5098C11.8437 20.4526 12.1564 20.4526 12.461 20.5098C12.805 20.5743 13.133 20.7383 13.7889 21.0663L14.5759 21.4598C16.7012 22.5224 17.7638 23.0537 18.4658 22.9933C19.5599 22.8992 20.4646 22.1021 20.6956 21.0286C20.8439 20.3397 20.4505 19.2187 19.6638 16.9765C19.4218 16.2867 19.3007 15.9418 19.2775 15.6047C19.2416 15.0829 19.3702 14.563 19.6452 14.1182C19.8229 13.8308 20.0948 13.5784 20.6385 13.0734C22.384 11.4526 23.2568 10.6422 23.4361 9.91876C23.6674 8.98524 23.3428 8.00176 22.6011 7.38946C22.0263 6.91496 20.8603 6.7854 18.5282 6.52628C17.8585 6.45187 17.5237 6.41467 17.2262 6.30133C16.8428 6.15528 16.5013 5.91713 16.2317 5.60789C16.0225 5.36791 15.8691 5.061 15.5621 4.44717Z" fill="#F4CE14"/>
</svg>
